<svg version="1.1" xmlns="http://www.w3.org/2000/svg" xmlns:xlink="http://www.w3.org/1999/xlink" x="0px" y="0px" width="24px"
	 height="23.5px" viewBox="0 0 24 23.5" xml:space="preserve">
<path class="st0" d="M9.2,13.7c-0.1-0.1-0.2-0.3-0.3-0.4c-0.2-0.3-0.5-0.7-0.7-1l-1.1-1.7C6.7,9.9,6.5,9.4,6.5,9
	c0-0.4,0.2-1,0.7-1.1c-0.1-1-0.1-2.1,0-3.1c0-0.2,0.1-0.5,0.1-0.7c0.3-1,1-1.8,1.8-2.3c0.3-0.2,0.6-0.4,1-0.5C10.8,1,10.5,0,11.1,0
	c1.6,0,4.3,1.3,5.3,2.5c0.7,0.7,1,1.7,1.1,2.7L17.5,8C17.7,8,18,8.3,18,8.5c0.1,0.3,0,0.8-0.3,1.5l0,0c0,0,0,0,0,0l-1.2,2
	c-0.3,0.5-0.6,0.9-0.9,1.4c-0.4,0.5-0.7,0.4-0.4,0.9c0.4,0.6,1,1,1.6,1.3c-0.1,0-0.2,0-0.2,0l0,0c-0.4,0.1-0.7,0.3-0.9,0.7l-0.4,0.8
	c-0.1,0.2-0.2,0.4-0.2,0.5l0,0c0,0.2,0,0.4,0,0.6v0c0,0.2,0.1,0.4,0.2,0.5l0,0c0,0-0.1,0-0.1,0.1c-0.2,0.1-0.3,0.3-0.4,0.4
	c-0.1,0.2-0.2,0.4-0.2,0.6c0,0.2,0,0.4,0,0.6l0,0l0.2,0.9c0,0.1,0,0.1,0.1,0.2c0,0.1,0.1,0.2,0.2,0.3c0,0,0,0,0.1,0.1
	c0,0,0.1,0.1,0.1,0.1H0c0-6.4,6.9-4.4,9.3-7.6C9.6,14,9.5,14,9.2,13.7L9.2,13.7z M23.8,18.3c0-0.1-0.1-0.2-0.2-0.2
	c-0.1-0.1-0.2-0.1-0.3,0l-0.6,0.1c-0.1-0.1-0.1-0.2-0.2-0.3c-0.1-0.1-0.2-0.2-0.3-0.3l0.3-0.5c0.1-0.2,0.1-0.4-0.1-0.5c0,0,0,0,0,0
	l-0.7-0.4c-0.1-0.1-0.2-0.1-0.3,0c-0.1,0-0.2,0.1-0.2,0.2L21,16.7c-0.1,0-0.3-0.1-0.4-0.1c-0.1,0-0.3,0-0.4,0L20,16
	c0-0.1-0.1-0.2-0.2-0.2c-0.1-0.1-0.2-0.1-0.3,0l-0.8,0.2c-0.1,0-0.2,0.1-0.2,0.2c-0.1,0.1-0.1,0.2,0,0.3l0.2,0.6
	c-0.1,0.1-0.2,0.1-0.3,0.2c-0.1,0.1-0.2,0.2-0.3,0.3l-0.5-0.3c-0.1-0.1-0.2-0.1-0.3,0c-0.1,0-0.2,0.1-0.2,0.2l-0.4,0.7
	c-0.1,0.1-0.1,0.2,0,0.3c0,0.1,0.1,0.2,0.2,0.2l0.5,0.3c0,0.1-0.1,0.3-0.1,0.4c0,0.1,0,0.3,0,0.4l-0.6,0.2c-0.1,0-0.2,0.1-0.2,0.2
	c-0.1,0.1-0.1,0.2,0,0.3l0.2,0.8c0,0.1,0.1,0.2,0.2,0.2c0.1,0.1,0.2,0.1,0.3,0l0.6-0.2c0.1,0.1,0.1,0.2,0.2,0.3
	c0.1,0.1,0.2,0.2,0.3,0.3l-0.3,0.5c-0.1,0.1-0.1,0.2,0,0.3c0,0.1,0.1,0.2,0.2,0.2l0.7,0.4c0.2,0.1,0.4,0,0.5-0.1l0.3-0.5
	c0.1,0,0.3,0.1,0.4,0.1c0.1,0,0.3,0,0.4,0l0.2,0.6c0,0.1,0.1,0.2,0.2,0.2c0.1,0.1,0.2,0.1,0.3,0l0.8-0.2c0.2-0.1,0.3-0.3,0.3-0.5
	l-0.2-0.6c0.1-0.1,0.2-0.1,0.3-0.2c0.1-0.1,0.2-0.2,0.3-0.3l0.5,0.3c0.2,0.1,0.4,0,0.5-0.1c0,0,0,0,0,0l0.4-0.7
	c0.1-0.2,0-0.4-0.1-0.5L23,20.5c0-0.1,0.1-0.3,0.1-0.4c0-0.1,0-0.3,0-0.4l0.6-0.2c0.1,0,0.2-0.1,0.2-0.2c0.1-0.1,0.1-0.2,0-0.3
	L23.8,18.3L23.8,18.3z M20.9,18.3c0.2,0.1,0.3,0.2,0.5,0.4c0.2,0.3,0.4,0.7,0.3,1.1c-0.1,0.6-0.5,1.1-1.1,1.3
	c-0.2,0.1-0.4,0.1-0.6,0c-0.4-0.1-0.8-0.3-1-0.6c-0.2-0.3-0.4-0.7-0.3-1.1c0.1-0.4,0.3-0.8,0.6-1c0.3-0.2,0.7-0.4,1.1-0.3
	C20.5,18.1,20.7,18.2,20.9,18.3L20.9,18.3z"/>
</svg>
