<svg version="1.1" xmlns="http://www.w3.org/2000/svg" xmlns:xlink="http://www.w3.org/1999/xlink" x="0px" y="0px" width="24px"
	 height="20.8px" viewBox="0 0 24 20.8" xml:space="preserve">
<defs>
</defs>
<path d="M8.5,20.8H7.2c-0.4,0-0.8-0.4-0.8-0.8c0-0.1,0-0.2,0.1-0.3l3.2-7.1l-4.8-0.1l-1.8,2.1c-0.3,0.4-0.6,0.6-1.3,0.6H0.9
	c-0.3,0-0.6-0.1-0.7-0.4C0,14.7-0.1,14.4,0,14l1-3.6c0,0,0-0.1,0-0.1c0,0,0,0,0,0c0,0,0-0.1,0-0.1L0,6.7c-0.1-0.4,0-0.6,0.1-0.8
	c0.2-0.2,0.4-0.3,0.7-0.3h0.9c0.5,0,1,0.2,1.3,0.6l1.7,2.1l4.9-0.1L6.5,1.1c-0.2-0.4,0-0.9,0.4-1.1C7,0,7.1,0,7.2,0h1.3
	c0.4,0,0.7,0.2,1,0.5l6.3,7.6L18.7,8c0.2,0,0.8,0,0.9,0c2.8,0,4.4,0.9,4.4,2.4c0,0.5-0.2,1.4-1.5,1.9c-0.7,0.3-1.7,0.5-3,0.5
	c-0.1,0-0.7,0-0.9,0l-2.9-0.1l-6.3,7.6C9.3,20.6,8.9,20.8,8.5,20.8z"/>
</svg>
