<!-- Generator: Adobe Illustrator 23.0.3, SVG Export Plug-In  -->
<svg version="1.1" xmlns="http://www.w3.org/2000/svg" xmlns:xlink="http://www.w3.org/1999/xlink" x="0px" y="0px" width="24px"
	 height="22px" viewBox="0 0 24 22" xml:space="preserve">
<path class="st0" d="M22.6,6.7c0.4-0.1,0.8,0.1,1,0.4c0.1,0.2,0.2,0.3,0.2,0.5c0,0.2,0.1,0.3,0,0.5c-0.2,0.5-0.6,0.7-1,1
	c-0.4,0.2-0.9,0.4-1.3,0.6c-0.2,0.1-0.5,0.2-0.8,0.3c-0.3,0.1-0.5,0.2-0.8,0.2c-0.2,0.1-0.4,0.1-0.7,0.1c-0.7,0-1.4-0.3-2-0.8
	C17.2,9.4,17,9.2,16.8,9l-0.1-0.1l-1,3c0.4,0.3,0.8,0.5,1.2,0.7c1.3,0.6,2.4,1.2,2.6,3.3c0,0.3,0,1.8,0,3H24v3H0v-1.5h3.8
	c-0.4-0.3-0.5-0.9-0.2-1.4c0.3-0.5,0.9-0.6,1.3-0.2c0.4,0.3,0.5,0.8,0.3,1.3c-0.1,0.2-0.2,0.3-0.3,0.4H10c0.3-0.8,0.7-2.4,1-3
	c0.5-1.5,1-3,1.3-4.2c-0.2-0.3-0.4-0.6-0.5-0.9c-0.1-0.3-0.2-0.5-0.2-0.8c0-0.1,0-0.2,0-0.3l1.2-3.7c-0.3,0-0.6-0.1-0.8,0
	c-0.5,0.2-1.2,1.3-1.6,1.7L9.8,9.9c-0.4,0.4-0.7,0.9-1.3,0.9l-0.4,0.8l0,0l-3.1,6.6l-0.1,0c-0.8-0.4-1.7,0-2.1,0.8
	c0,0.1-0.1,0.1-0.1,0.2l-1.6-0.8l-0.4,0.8L0,18.7l0.4-0.9c-0.2-0.3-0.2-0.7-0.1-1l1.2-2.6l1.2,0.6c0.1,0.1,0.3,0,0.4-0.1
	c0.1-0.1,0-0.3-0.1-0.4c0,0,0,0-0.1,0l-1.2-0.6l0.7-1.6l1.2,0.6c0.1,0.1,0.3,0,0.3-0.1c0.1-0.1,0-0.3-0.1-0.3l-1.2-0.6l0.6-1.3
	c0.2-0.5,0.9-0.7,1.4-0.5l2.7,1.4l0.3-0.7c-0.4-0.4-0.5-1-0.1-1.4c0,0,0,0,0,0l1.3-1.4c0.6-0.7,1.2-1.6,2-2c0.7-0.4,1.6-0.6,2.4-0.6
	c0.4,0,0.8,0,1.2,0.1l0.5,0c1.9,0.1,2.7,1.1,3.4,1.9c0.3,0.4,0.6,0.6,0.8,0.8c0.1,0.1,0.3,0,0.6-0.1l1.7-0.7L22.6,6.7L22.6,6.7
	L22.6,6.7z M17.2,19c0-1.1,0-2.4,0-2.6s-0.2-0.9-0.4-1c-0.3-0.1-0.6-0.3-1-0.4c-0.5-0.2-0.8-0.3-1.3-0.5c-0.3,1.2-0.8,2.5-1.3,3.9
	l-0.7,2.1H15V19L17.2,19z M14.9,0.1c1.2-0.4,2.4,0.2,2.8,1.4c0.4,1.2-0.2,2.5-1.4,2.9s-2.4-0.2-2.8-1.4c-0.1-0.2-0.1-0.5-0.1-0.8
	C13.4,1.3,14,0.4,14.9,0.1z"/>
</svg>
