<svg version="1.1" xmlns="http://www.w3.org/2000/svg" xmlns:xlink="http://www.w3.org/1999/xlink" x="0px" y="0px" width="25.3px"
	 height="24.4px" viewBox="0 0 25.3 24.4" xml:space="preserve">
	<path d="M20.5,17.9c-0.1,1.8-1.6,3.2-3.4,3.2H6.6c-1.9,0-3.4-1.5-3.4-3.4V7.2c0-1.9,1.5-3.4,3.4-3.4h4.8V0.6H6.6C3,0.6,0,3.6,0,7.2
		v10.5c0,3.6,3,6.6,6.6,6.6h10.5c3.6,0,6.6-3,6.6-6.6V13h-3.3V17.9z"/>
	<path d="M24.3,0.9C23.7,0.3,23,0,22.1,0c-0.8,0-1.6,0.3-2.2,0.9L9.8,11c-0.5,0.5-0.7,1-0.8,1.7l-0.5,3.3c0,0.2,0,0.4,0.2,0.6
		c0.1,0.2,0.3,0.2,0.5,0.2c0,0,0.1,0,0.1,0l3.3-0.5c0.6-0.1,1.2-0.4,1.7-0.8L24.3,5.3c0.6-0.6,0.9-1.4,0.9-2.2
		C25.3,2.3,24.9,1.5,24.3,0.9z M12.6,14.6c-0.1,0-0.2,0.1-0.3,0.1L10.2,15l0.3-2.1c0-0.1,0-0.2,0.1-0.3L12.6,14.6z M22,5.5l-8.2,8.2
		l-2.2-2.2l8.2-8.2L22,5.5z M23.2,4.2l-0.1,0.1l-2.2-2.2L21,2c0.6-0.6,1.6-0.6,2.2,0C23.9,2.6,23.9,3.6,23.2,4.2z"/>
</svg>
