<svg version="1.1" xmlns="http://www.w3.org/2000/svg" xmlns:xlink="http://www.w3.org/1999/xlink" x="0px" y="0px" width="24px"
	 height="15.7px" viewBox="0 0 24 15.7" xml:space="preserve">
<path class="st0" d="M15.5,9.2c0.2-0.5,0.3-1.1,0.3-1.3c0-2.2-1.7-3.9-3.8-3.9c-2.1,0-3.8,1.8-3.8,3.9c0,2.2,1.9,3.6,3.8,3.6
	c1.2,0,2.3-0.6,3-1.5C15.2,9.7,15.3,9.4,15.5,9.2z M12,9.5c0.5,0,0.9-0.2,1.2-0.5c0.4-0.4,0.6-0.9,0.6-1.1c0-1.1-0.8-2-1.8-2
	c-1,0-1.9,0.9-1.9,2C10.2,8.6,11,9.5,12,9.5z"/>
<path class="st0" d="M0.1,8.1C0.1,8.1,0.1,8.1,0.1,8.1C0,7.9,0,7.8,0.1,7.6c0,0,0,0,0,0C3.5,2.6,7.7,0,12,0c4.3,0,8.5,2.6,11.9,7.5
	C24,7.6,24,7.7,24,7.8c0,0.1,0,0.2-0.1,0.3c-3.4,4.9-7.6,7.5-11.9,7.5C7.7,15.7,3.5,13.1,0.1,8.1z M2.7,7.2c-0.3,0.3-0.3,0.8,0,1.2
	c2.9,3.6,6.2,5.3,9.3,5.3c3.1,0,6.4-1.7,9.3-5.3c0.3-0.3,0.3-0.8,0-1.2C18.4,3.7,15.2,2,12,2C8.9,2,5.6,3.7,2.7,7.2z"/>
</svg>
