<svg version="1.1" xmlns="http://www.w3.org/2000/svg" xmlns:xlink="http://www.w3.org/1999/xlink" x="0px" y="0px" width="17.7px"
	 height="24px" viewBox="0 0 17.7 24" xml:space="preserve">
<path d="M15.8,10.1V6.9c0-3.8-3.1-6.9-6.9-6.9C5.1,0,2,3.1,2,6.9v3.2c-1.1,0-2,0.9-2,2V22c0,1.1,0.9,2,2,2h13.7c1.1,0,2-0.9,2-2
	v-9.9C17.7,11,16.9,10.1,15.8,10.1z M8.9,2.3c2.5,0,4.6,2,4.6,4.6v3.2H4.3V6.9C4.3,4.4,6.4,2.3,8.9,2.3z M9.5,16.1l0.2,3.2H8.1
	l0.1-3.2c-0.4-0.2-0.6-0.6-0.6-1.1c0-0.7,0.6-1.3,1.3-1.3c0.7,0,1.3,0.6,1.3,1.3C10.1,15.4,9.9,15.8,9.5,16.1z"/>
</svg>
