<svg version="1.1" xmlns="http://www.w3.org/2000/svg" xmlns:xlink="http://www.w3.org/1999/xlink" x="0px" y="0px" width="24px"
	 height="24px" viewBox="0 0 24 24" xml:space="preserve">
<defs>
</defs>
<path d="M9.6,24H4.8C2.2,24,0,21.6,0,18.7V5.3C0,2.4,2.2,0,4.8,0h4.8c2.6,0,4.8,2.4,4.8,5.3v1.3c0,0.7-0.5,1.3-1.2,1.3
	C12.5,8,12,7.4,12,6.7V5.3c0-1.5-1.1-2.7-2.4-2.7H4.8c-1.3,0-2.4,1.2-2.4,2.7v13.3c0,1.5,1.1,2.7,2.4,2.7h4.8c1.3,0,2.4-1.2,2.4-2.7
	v-1.3c0-0.7,0.5-1.3,1.2-1.3c0.7,0,1.2,0.6,1.2,1.3v1.3C14.4,21.6,12.2,24,9.6,24z M18,18.7c-0.3,0-0.6-0.1-0.8-0.4
	c-0.5-0.5-0.5-1.4,0-1.9l2.8-3.1H6c-0.7,0-1.2-0.6-1.2-1.3s0.5-1.3,1.2-1.3h13.9l-2.8-3.1c-0.5-0.5-0.5-1.4,0-1.9s1.2-0.5,1.7,0
	l4.8,5.3c0.1,0.1,0.2,0.3,0.3,0.4C24,11.6,24,11.8,24,12l0,0c0,0,0,0,0,0l0,0c0,0.2,0,0.3-0.1,0.5c-0.1,0.2-0.1,0.3-0.3,0.4
	l-4.8,5.3C18.6,18.5,18.3,18.7,18,18.7z"/>
</svg>
