<svg version="1.1" xmlns="http://www.w3.org/2000/svg" xmlns:xlink="http://www.w3.org/1999/xlink" x="0px" y="0px" width="24px"
	 height="24px" viewBox="0 0 24 24" xml:space="preserve">
<g transform="translate(1.4065934065934016 1.4065934065934016) scale(2.81 2.81)">
	<path d="M7.8,6.8L6,5c0.9-1.4,0.8-3.2-0.5-4.4h0c-1.4-1.4-3.6-1.4-5,0c-1.4,1.4-1.4,3.6,0,5c0.7,0.7,1.6,1,2.5,1
		C3.7,6.6,4.4,6.4,5,6l1.9,1.9C7,8,7.1,8,7.3,8C7.5,8,7.7,8,7.8,7.8C8.1,7.6,8.1,7.1,7.8,6.8z M1.5,4.5c-0.8-0.8-0.8-2.2,0-3
		C1.9,1.1,2.5,0.9,3,0.9c0.5,0,1.1,0.2,1.5,0.6c0.8,0.8,0.8,2.2,0,3c0,0,0,0,0,0c0,0,0,0,0,0C3.7,5.3,2.4,5.3,1.5,4.5z"/>
</g>
</svg>
