<!-- Generator: Adobe Illustrator 23.0.3, SVG Export Plug-In  -->
<svg version="1.1" xmlns="http://www.w3.org/2000/svg" xmlns:xlink="http://www.w3.org/1999/xlink" x="0px" y="0px" width="24px"
	 height="24px" viewBox="0 0 24 24" xml:space="preserve">
<defs>
</defs>
<path d="M21.5,9.5h-7V2.5C14.5,1.1,13.4,0,12,0h0c-1.4,0-2.5,1.1-2.5,2.5v6.9h-7C1.1,9.5,0,10.6,0,12v0c0,1.4,1.1,2.5,2.5,2.5h7v7
	c0,1.4,1.1,2.5,2.5,2.5h0c1.4,0,2.5-1.1,2.5-2.5v-7h7c1.4,0,2.5-1.1,2.5-2.5v0C24,10.6,22.9,9.5,21.5,9.5z"/>
</svg>
