<svg version="1.1" xmlns="http://www.w3.org/2000/svg" xmlns:xlink="http://www.w3.org/1999/xlink" x="0px" y="0px" width="18.9px"
	 height="18.8px" viewBox="0 0 18.9 18.8" xml:space="preserve">
<path d="M18.3,15.6l-6.2-6.2l6.2-6.2c0.4-0.4,0.5-0.8,0.5-1.3s-0.2-1-0.5-1.3c-0.7-0.7-1.9-0.7-2.7,0L9.4,6.7L3.3,0.5
	c-0.7-0.7-1.9-0.7-2.7,0c-0.7,0.7-0.7,1.9,0,2.7l6.2,6.2l-6.2,6.2c-0.7,0.7-0.7,1.9,0,2.7c0.4,0.4,0.8,0.5,1.3,0.5s1-0.2,1.3-0.5
	L9.4,12l6.2,6.2c0.7,0.7,1.9,0.7,2.7,0c0.4-0.4,0.5-0.8,0.5-1.3S18.7,15.9,18.3,15.6z"/>
</svg>
